PathFileType	4	(X/Y/Z)	Patient4_TMGait_0pt6_02_right_31.trc.trc
DataRate	CameraRate	NumFrames	NumMarkers	Units	OrigDataRate	OrigDataStartFrame	OrigNumFrames
83.832335329342	83.832335329342	4	33	mm	83.832335329342	36	       141
Frame#	Time	Sacral			L.Shoulder			Chest			R.Shoulder			Neck			R.ASIS			L.ASIS			R.Thigh.Superior			R.Thigh.Lateral			R.Thigh.Inferior			R.Patella			L.Thigh.Superior			L.Thigh.Lateral			L.Thigh.Inferior			L.Patella			L.Shank.Superior			L.Shank.Lateral			L.Shank.Inferior			R.Shank.Superior			R.Shank.Lateral			R.Shank.Inferior			R.Heel			R.Midfoot.Superior			R.Midfoot.Lateral			R.Toe			L.Heel			L.Midfoot.Lateral			L.Midfoot.Superior			L.Toe			L.Elbow			L.Wrist			R.Elbow			R.Wrist			
		X1	Y1	Z1	X2	Y2	Z2	X3	Y3	Z3	X4	Y4	Z4	X5	Y5	Z5	X6	Y6	Z6	X7	Y7	Z7	X8	Y8	Z8	X9	Y9	Z9	X10	Y10	Z10	X11	Y11	Z11	X12	Y12	Z12	X13	Y13	Z13	X14	Y14	Z14	X15	Y15	Z15	X16	Y16	Z16	X17	Y17	Z17	X18	Y18	Z18	X19	Y19	Z19	X20	Y20	Z20	X21	Y21	Z21	X22	Y22	Z22	X23	Y23	Z23	X24	Y24	Z24	X25	Y25	Z25	X26	Y26	Z26	X27	Y27	Z27	X28	Y28	Z28	X29	Y29	Z29	X30	Y30	Z30	X31	Y31	Z31	X32	Y32	Z32	X33	Y33	Z33	

36	37.727500000000	870.959636160009	1004.670729062350	479.685744276048	1054.560545163787	1421.344783054174	277.116175813501	1159.980956892744	1351.722334512142	435.748846556650	1085.937606383904	1437.484048683810	608.070878151336	1064.809192019433	1486.990160654596	424.816317152900	1101.351692204950	934.521017263507	585.674965944827	1074.990828529736	956.515397524901	313.081197857154	1164.188524013219	749.038725635075	553.573296419852	1101.896821251596	632.873392172887	619.638145376773	1183.903637231304	589.249377342199	537.401505094239	1199.600964941283	498.456682275658	546.816319911100	1084.561556797542	730.681106755242	327.218589117154	969.305002294249	634.677050629935	268.740339499586	1042.691672568162	536.083303221116	316.873352694599	1025.625037670261	456.556468614824	316.098894175385	961.784943531560	402.601106097540	313.373583731221	824.034438526187	347.312396466371	270.048893793871	823.221223187776	217.999055311438	328.230612976571	1171.298420164342	408.765277751207	557.906178457008	1103.861058829563	305.383182099495	623.908367789051	1147.611223875636	209.446305852635	564.486704648486	1018.193984939666	44.048010731833	541.099421132046	1188.562451943689	98.665744421930	577.234215646709	1101.159282838739	38.031466756121	616.321540047454	1309.421531420653	44.234512678055	606.102578751462	637.336133644968	128.024770513727	367.692845667909	704.602594435061	81.356941927204	297.135480784218	805.388488422250	109.587814454331	318.610879135137	900.228230863779	35.459101057340	314.151561885053	1009.578225778604	1070.064977289226	167.832660208821	1260.505926097118	1029.026837911498	159.123560135171	980.262677586987	1127.203345602949	763.645920057919	1026.865635071099	868.842915215719	753.783649356914	
37	37.739428571429	871.749696410422	1005.881047270162	482.999027913386	1053.996086016617	1422.878902470590	279.789544658413	1160.309206088146	1353.106617282637	437.791093316920	1087.073248207193	1438.640876269671	610.469488233796	1064.829163016158	1488.254291888891	427.520137340318	1102.336538101211	935.745652801185	588.054999532099	1074.975149010010	957.445183773086	315.377272006516	1163.361827464121	748.308446196106	557.328851782630	1098.599453551490	632.841997472102	621.866543050051	1180.496217730285	588.592192579970	539.860126897205	1194.928876998937	497.810689208710	548.517376306042	1088.800682745681	732.369386257345	329.067199548597	976.504678947213	634.227343824040	269.999496748696	1052.495913551497	536.620278310666	317.717953458581	1036.077026293802	455.917476716349	315.833628766822	970.108986079199	402.560611749996	313.290570723552	830.559773434311	351.771589071005	270.089301291666	826.095945909496	222.177736067028	327.172057055224	1166.158481814635	408.386870183222	559.303519009703	1098.171247614800	305.151223396682	624.867082316291	1141.342171261932	209.203586943583	565.082557874185	1011.086023076994	44.120830058216	541.180559357068	1181.514339871857	98.561472249793	577.445623507202	1094.018346475427	38.001071398274	616.399341602834	1302.336101614961	43.803258724803	606.322420302400	637.578433186972	140.912404248482	366.407301045545	702.030124911635	89.883330413856	296.378392516845	804.141992382803	112.400482466014	317.578481240653	893.599916805705	34.264998884320	314.225539347268	1005.866127654352	1071.820444474411	171.046279932846	1255.672292171397	1022.486350279756	162.009594614414	987.628577010054	1126.463777137007	767.392901455223	1045.546797023794	870.741089904445	754.242424838763	
38	37.751357142857	872.331115743449	1006.974196415338	486.226802643747	1053.270184138661	1424.204113203927	282.336383032151	1160.537480057070	1354.290285089109	439.683526794353	1088.174079852801	1439.622139286572	612.731254721320	1064.695917173413	1489.337487801603	430.099756914176	1103.127159329990	936.736020091462	590.343486258950	1074.739165469838	958.139272194138	317.609503037171	1162.313855404855	747.498405159661	560.922005806883	1095.294915236869	632.827600718246	624.088773359628	1176.938183373565	587.932237220463	542.222574387569	1190.110642754543	497.151784366394	550.280150813448	1093.219803988881	734.135821443680	331.148713909945	984.308975691982	633.767627420963	271.279333141100	1062.804092885641	537.351704931079	318.979152617438	1047.091154354953	455.500243131759	316.130190214045	979.165870062824	402.625312048546	313.551451522528	838.075364559094	356.379952791748	270.165176457760	829.756078310841	226.730791702075	326.341508575098	1160.902260542295	407.973758628815	560.754782336513	1092.372835101915	304.872894521988	625.874466755895	1135.002640708020	208.927272640211	565.728351626621	1003.921237238603	44.169891192778	541.274622867465	1174.427810074921	98.413318858780	577.672698511931	1086.821079191808	37.937771971712	616.492623046725	1295.202346724195	43.333711164019	606.524603247291	639.034688726309	154.726270809953	365.133018480491	700.333601906305	99.431910436147	295.617114409638	803.484402198396	115.867081015431	316.685935236444	887.089777188454	32.817059085474	314.243382786451	1002.193853103215	1073.366459387300	174.066945842921	1250.480990303905	1014.976369468721	164.814643266055	995.006050992254	1125.824029190940	771.167372834602	1064.674175757829	873.435241153305	754.546062462973	
39	37.763285714286	872.678283863785	1007.923954625665	489.347863511046	1052.391835628122	1425.311615187384	284.741623744955	1160.649194938787	1355.239873507996	441.414073655287	1089.232716644204	1440.401047578609	614.850551855395	1064.430943989572	1490.231498472137	432.541745537206	1103.709011879550	937.509678887764	592.529479598765	1074.254062772912	958.605072250263	319.782122801521	1161.073393883664	746.682940678932	564.188404783174	1092.102280486414	632.857396786426	626.257285317383	1173.315585890537	587.292230008622	544.417007451036	1185.238596051490	496.494074524326	552.054494414471	1097.734093116656	736.026499381448	333.497779053075	992.632613793043	633.378050796441	272.595954464301	1073.495232843371	538.354637184709	320.671253133179	1058.578259316922	455.372354814923	316.991135592352	988.870961540680	402.849052366759	314.175571630664	846.497815653489	361.128807388507	270.320196976238	834.186319532060	231.643156925048	325.787396653474	1155.610676493426	407.537490359509	562.219149810426	1086.544905134341	304.576879791477	626.913545282534	1128.640700861680	208.630553974473	566.401686138238	996.723697982784	44.207602058110	541.387440782760	1167.323317494650	98.246773102844	577.914335318008	1079.593408139344	37.861464374244	616.606657631662	1288.040264637452	42.864817380211	606.715480345889	641.749477666476	169.246447877766	363.967975433203	699.616542884089	109.889040274415	294.902296022206	803.492439937793	120.031913925172	315.946740908783	880.830588075465	31.199449912308	314.157125804170	998.600140297706	1074.653559564461	176.944743112538	1244.863766474625	1006.449006087457	167.532212559074	1002.461450744010	1125.203623300048	774.909949626377	1084.162871976528	876.915321929636	754.647954249922	
